<svg width="1440" height="252" viewBox="0 0 1440 252" fill="none" xmlns="http://www.w3.org/2000/svg">
<path opacity="0.2" d="M-10.25 197.75L-9.87638 196.822L-10.25 197.75ZM-41.75 177.5L-42.4571 178.207L-42.4504 178.214L-42.4436 178.22L-41.75 177.5ZM-62.5 146.75L-61.5809 146.356L-62.5 146.75ZM-62.75 70.75L-63.6692 70.356L-63.6739 70.3672L-62.75 70.75ZM-42 40.25L-42.6937 39.5296L-42.7003 39.5362L-42 40.25ZM68 20L67.6264 20.9276L68 20ZM99.25 40.25L98.5496 40.9638L98.5564 40.9703L99.25 40.25ZM120 70.75L119.076 71.1328L119.081 71.1439L120 70.75ZM120 146.75L119.081 146.356L120 146.75ZM99 177.5L99.7003 178.214L99.7005 178.214L99 177.5ZM67.75 197.75L68.1236 198.678L67.75 197.75ZM52.25 165.5L51.8714 164.574L51.8639 164.578L52.25 165.5ZM71.5 153L72.1962 153.718L72.2017 153.713L72.2071 153.707L71.5 153ZM84.25 133.5L83.3215 133.129L84.25 133.5ZM84.25 84.25L83.3215 84.6214L83.3245 84.6286L84.25 84.25ZM52.25 52.25L51.8639 53.1724L51.8767 53.1778L51.8896 53.1828L52.25 52.25ZM5 52.25L5.36769 53.18L5.37864 53.1755L5 52.25ZM-14 64.75L-14.7071 64.0429L-14 64.75ZM-26.75 84.25L-25.8244 84.6286L-25.8215 84.6214L-26.75 84.25ZM-26.75 133.5L-27.6785 133.871L-26.75 133.5ZM-14 153L-14.7071 153.707L-14.7017 153.713L-14.6961 153.718L-14 153ZM5 165.5L4.61385 166.422L4.62137 166.426L5 165.5ZM28.75 204C14.8674 204 1.99541 201.604 -9.87638 196.822L-10.6236 198.678C1.50459 203.563 14.6326 206 28.75 206V204ZM-9.87638 196.822C-21.7617 192.035 -32.152 185.354 -41.0564 176.78L-42.4436 178.22C-33.348 186.979 -22.7383 193.798 -10.6236 198.678L-9.87638 196.822ZM-41.0429 176.793C-49.7848 168.051 -56.6301 157.908 -61.5809 146.356L-63.4191 147.144C-58.3699 158.926 -51.3819 169.282 -42.4571 178.207L-41.0429 176.793ZM-61.5809 146.356C-66.5235 134.823 -69 122.292 -69 108.75H-71C-71 122.542 -68.4765 135.343 -63.4191 147.144L-61.5809 146.356ZM-69 108.75C-69 95.2038 -66.6052 82.6684 -61.8261 71.1327L-63.6739 70.3672C-68.5615 82.1649 -71 94.9629 -71 108.75H-69ZM-61.8309 71.1439C-56.8809 59.594 -50.0375 49.5368 -41.2997 40.9638L-42.7003 39.5362C-51.6292 48.2966 -58.6191 58.5727 -63.6691 70.3561L-61.8309 71.1439ZM-41.3064 40.9703C-32.402 32.3958 -22.0117 25.7147 -10.1264 20.9276L-10.8736 19.0724C-22.9883 23.9519 -33.598 30.7709 -42.6936 39.5297L-41.3064 40.9703ZM-10.1264 20.9276C1.74403 16.1464 14.6991 13.75 28.75 13.75V11.75C14.4675 11.75 1.25597 14.1869 -10.8736 19.0724L-10.1264 20.9276ZM28.75 13.75C42.8009 13.75 55.756 16.1464 67.6264 20.9276L68.3736 19.0724C56.244 14.1869 43.0325 11.75 28.75 11.75V13.75ZM67.6264 20.9276C79.5101 25.7141 89.8144 32.3933 98.5497 40.9638L99.9503 39.5362C91.019 30.7733 80.4899 23.9526 68.3736 19.0724L67.6264 20.9276ZM98.5564 40.9703C107.456 49.5405 114.295 59.5918 119.076 71.1327L120.924 70.3672C116.038 58.5748 109.044 48.2929 99.9436 39.5297L98.5564 40.9703ZM119.081 71.1439C124.024 82.6768 126.5 95.2082 126.5 108.75H128.5C128.5 94.9584 125.976 82.1565 120.919 70.3561L119.081 71.1439ZM126.5 108.75C126.5 122.292 124.024 134.823 119.081 146.356L120.919 147.144C125.976 135.343 128.5 122.542 128.5 108.75H126.5ZM119.081 146.356C114.132 157.904 107.206 168.045 98.2995 176.786L99.7005 178.214C108.794 169.288 115.868 158.93 120.919 147.144L119.081 146.356ZM98.2997 176.786C89.5644 185.357 79.2601 192.036 67.3764 196.822L68.1236 198.678C80.2399 193.797 90.769 186.977 99.7003 178.214L98.2997 176.786ZM67.3764 196.822C55.5046 201.604 42.6326 204 28.75 204V206C42.8674 206 55.9954 203.563 68.1236 198.678L67.3764 196.822ZM28.75 171C37.37 171 45.3361 169.478 52.6362 166.422L51.8639 164.578C44.8306 167.522 37.13 169 28.75 169V171ZM52.6286 166.426C60.076 163.379 66.6014 159.143 72.1962 153.718L70.8039 152.282C65.3986 157.524 59.0907 161.621 51.8714 164.574L52.6286 166.426ZM72.2071 153.707C77.8066 148.108 82.1302 141.492 85.1785 133.871L83.3215 133.129C80.3698 140.508 76.1934 146.892 70.7929 152.293L72.2071 153.707ZM85.1785 133.871C88.2308 126.241 89.75 117.863 89.75 108.75H87.75C87.75 117.637 86.2692 125.759 83.3215 133.129L85.1785 133.871ZM89.75 108.75C89.75 99.6377 88.2309 91.3401 85.1756 83.8714L83.3245 84.6286C86.2691 91.8265 87.75 99.8623 87.75 108.75H89.75ZM85.1785 83.8786C82.1302 76.2578 77.8066 69.6423 72.2071 64.0429L70.7929 65.4571C76.1934 70.8576 80.3698 77.2422 83.3215 84.6214L85.1785 83.8786ZM72.2071 64.0429C66.6075 58.4432 60.0723 54.2002 52.6104 51.3172L51.8896 53.1828C59.0943 55.9664 65.3926 60.0568 70.7929 65.4571L72.2071 64.0429ZM52.6362 51.3275C45.3361 48.2717 37.37 46.75 28.75 46.75V48.75C37.13 48.75 44.8306 50.2283 51.8639 53.1724L52.6362 51.3275ZM28.75 46.75C20.1297 46.75 12.0834 48.2718 4.62137 51.3244L5.37864 53.1755C12.5833 50.2282 20.3703 48.75 28.75 48.75V46.75ZM4.63235 51.32C-2.66273 54.2041 -9.11131 58.4471 -14.7071 64.0429L-13.2929 65.4571C-7.88868 60.0529 -1.67059 55.9625 5.36766 53.18L4.63235 51.32ZM-14.7071 64.0429C-20.3066 69.6423 -24.6302 76.2578 -27.6785 83.8786L-25.8215 84.6214C-22.8698 77.2422 -18.6934 70.8576 -13.2929 65.4571L-14.7071 64.0429ZM-27.6755 83.8714C-30.7309 91.3401 -32.25 99.6377 -32.25 108.75H-30.25C-30.25 99.8623 -28.7691 91.8265 -25.8245 84.6286L-27.6755 83.8714ZM-32.25 108.75C-32.25 117.863 -30.7308 126.241 -27.6785 133.871L-25.8215 133.129C-28.7692 125.759 -30.25 117.637 -30.25 108.75H-32.25ZM-27.6785 133.871C-24.6302 141.492 -20.3066 148.108 -14.7071 153.707L-13.2929 152.293C-18.6934 146.892 -22.8698 140.508 -25.8215 133.129L-27.6785 133.871ZM-14.6961 153.718C-9.1052 159.139 -2.66634 163.375 4.61386 166.422L5.38614 164.578C-1.66698 161.625 -7.89479 157.527 -13.3039 152.282L-14.6961 153.718ZM4.62137 166.426C12.0834 169.478 20.1297 171 28.75 171V169C20.3703 169 12.5833 167.522 5.37864 164.574L4.62137 166.426ZM168.732 202H167.732V203H168.732V202ZM168.732 98H169.732V97H168.732V98ZM145.732 98H144.732V99H145.732V98ZM145.732 65.5V64.5H144.732V65.5H145.732ZM168.732 65.5V66.5H169.732V65.5H168.732ZM174.982 36L174.117 35.4997L174.112 35.507L174.108 35.5143L174.982 36ZM193.482 18.75L193.93 19.6444L193.482 18.75ZM229.482 13.25L229.35 14.2412L229.383 14.2456L229.416 14.2478L229.482 13.25ZM235.732 14H236.732V13.1802L235.929 13.0194L235.732 14ZM235.732 46L235.536 46.9806L236.732 47.2198V46H235.732ZM231.232 45.5L231.091 46.4899L231.161 46.5H231.232V45.5ZM211.482 50L212.133 50.7593L212.136 50.7568L211.482 50ZM206.232 65.5H205.232V66.5H206.232V65.5ZM260.482 65.5H261.482V64.5H260.482V65.5ZM260.482 98V99H261.482V98H260.482ZM206.232 98V97H205.232V98H206.232ZM206.232 202V203H207.232V202H206.232ZM349.482 202H348.482V203H349.482V202ZM349.482 65.5V64.5H348.482V65.5H349.482ZM386.982 65.5H387.982V64.5H386.982V65.5ZM386.982 202V203H387.982V202H386.982ZM268.732 202H267.732V203H268.732V202ZM268.732 98H269.732V97H268.732V98ZM245.732 98H244.732V99H245.732V98ZM245.732 65.5V64.5H244.732V65.5H245.732ZM268.732 65.5V66.5H269.732V65.5H268.732ZM274.982 36L274.117 35.4997L274.112 35.507L274.108 35.5143L274.982 36ZM293.482 18.75L293.035 17.8556L293.482 18.75ZM329.482 13.25L329.35 14.2412L329.383 14.2456L329.416 14.2478L329.482 13.25ZM335.732 14H336.732V13.1802L335.929 13.0194L335.732 14ZM335.732 46L335.536 46.9806L336.732 47.2198V46H335.732ZM331.232 45.5L331.091 46.4899L331.161 46.5H331.232V45.5ZM311.482 50L312.133 50.7593L312.136 50.7568L311.482 50ZM306.232 65.5H305.232V66.5H306.232V65.5ZM360.482 65.5H361.482V64.5H360.482V65.5ZM360.482 98V99H361.482V98H360.482ZM306.232 98V97H305.232V98H306.232ZM306.232 202V203H307.232V202H306.232ZM169.732 202V98H167.732V202H169.732ZM168.732 97H145.732V99H168.732V97ZM146.732 98V65.5H144.732V98H146.732ZM145.732 66.5H168.732V64.5H145.732V66.5ZM169.732 65.5V63.5H167.732V65.5H169.732ZM169.732 63.5C169.732 52.7928 171.791 43.803 175.857 36.4856L174.108 35.5143C169.84 43.197 167.732 52.5405 167.732 63.5H169.732ZM175.848 36.5003C180.08 29.1756 186.099 23.5599 193.93 19.6444L193.035 17.8556C184.866 21.9401 178.551 27.8244 174.117 35.4997L175.848 36.5003ZM193.93 19.6444C201.759 15.7299 211.264 13.75 222.482 13.75V11.75C211.034 11.75 201.206 13.7701 193.035 17.8556L193.93 19.6444ZM222.482 13.75C224.598 13.75 226.887 13.9128 229.35 14.2412L229.615 12.2588C227.078 11.9205 224.7 11.75 222.482 11.75V13.75ZM229.416 14.2478C231.891 14.4128 233.927 14.6588 235.536 14.9806L235.929 13.0194C234.204 12.6746 232.074 12.4206 229.549 12.2522L229.416 14.2478ZM234.732 14V46H236.732V14H234.732ZM235.929 45.0194C234.214 44.6765 232.647 44.5 231.232 44.5V46.5C232.485 46.5 233.918 46.6568 235.536 46.9806L235.929 45.0194ZM231.374 44.51C230.155 44.3359 228.857 44.25 227.482 44.25V46.25C228.774 46.25 229.977 46.3308 231.091 46.4899L231.374 44.51ZM227.482 44.25C220.347 44.25 214.743 45.8625 210.829 49.2432L212.136 50.7568C215.555 47.8041 220.618 46.25 227.482 46.25V44.25ZM210.832 49.2407C207.047 52.4844 205.232 57.3021 205.232 63.5H207.232C207.232 57.6979 208.918 53.5156 212.133 50.7592L210.832 49.2407ZM205.232 63.5V65.5H207.232V63.5H205.232ZM206.232 66.5H260.482V64.5H206.232V66.5ZM259.482 65.5V98H261.482V65.5H259.482ZM260.482 97H206.232V99H260.482V97ZM205.232 98V202H207.232V98H205.232ZM206.232 201H168.732V203H206.232V201ZM350.482 202V65.5H348.482V202H350.482ZM349.482 66.5H386.982V64.5H349.482V66.5ZM385.982 65.5V202H387.982V65.5H385.982ZM386.982 201H349.482V203H386.982V201ZM269.732 202V98H267.732V202H269.732ZM268.732 97H245.732V99H268.732V97ZM246.732 98V65.5H244.732V98H246.732ZM245.732 66.5H268.732V64.5H245.732V66.5ZM269.732 65.5V63.5H267.732V65.5H269.732ZM269.732 63.5C269.732 52.7928 271.791 43.803 275.857 36.4856L274.108 35.5143C269.84 43.197 267.732 52.5405 267.732 63.5H269.732ZM275.848 36.5003C280.08 29.1756 286.099 23.5599 293.93 19.6444L293.035 17.8556C284.866 21.9401 278.551 27.8244 274.117 35.4997L275.848 36.5003ZM293.93 19.6444C301.759 15.7299 311.264 13.75 322.482 13.75V11.75C311.034 11.75 301.206 13.7701 293.035 17.8556L293.93 19.6444ZM322.482 13.75C324.598 13.75 326.887 13.9128 329.35 14.2412L329.615 12.2588C327.078 11.9205 324.7 11.75 322.482 11.75V13.75ZM329.416 14.2478C331.891 14.4128 333.927 14.6588 335.536 14.9806L335.929 13.0194C334.204 12.6746 332.074 12.4206 329.549 12.2522L329.416 14.2478ZM334.732 14V46H336.732V14H334.732ZM335.929 45.0194C334.214 44.6765 332.647 44.5 331.232 44.5V46.5C332.485 46.5 333.918 46.6568 335.536 46.9806L335.929 45.0194ZM331.374 44.51C330.155 44.3359 328.857 44.25 327.482 44.25V46.25C328.774 46.25 329.977 46.3308 331.091 46.4899L331.374 44.51ZM327.482 44.25C320.347 44.25 314.743 45.8625 310.829 49.2432L312.136 50.7568C315.555 47.8041 320.618 46.25 327.482 46.25V44.25ZM310.832 49.2407C307.047 52.4844 305.232 57.3021 305.232 63.5H307.232C307.232 57.6979 308.918 53.5156 312.133 50.7592L310.832 49.2407ZM305.232 63.5V65.5H307.232V63.5H305.232ZM306.232 66.5H360.482V64.5H306.232V66.5ZM359.482 65.5V98H361.482V65.5H359.482ZM360.482 97H306.232V99H360.482V97ZM305.232 98V202H307.232V98H305.232ZM306.232 201H268.732V203H306.232V201ZM441.754 195.75L441.249 196.613L441.257 196.618L441.265 196.622L441.754 195.75ZM415.754 170L414.891 170.505L414.896 170.514L415.754 170ZM415.754 97.25L416.614 97.7605L416.617 97.7547L415.754 97.25ZM441.754 71.75L442.243 72.6223L441.754 71.75ZM507.004 67.75L506.629 68.6772L507.004 67.75ZM529.254 82.5L528.537 83.1977L528.547 83.2071L529.254 82.5ZM542.504 104.5L542.9 105.418L543.728 105.061L543.458 104.201L542.504 104.5ZM510.004 118.5L509.058 118.823L509.407 119.846L510.4 119.418L510.004 118.5ZM498.004 102.25L497.416 103.059L497.427 103.067L498.004 102.25ZM461.254 101L460.731 100.147L460.725 100.151L460.719 100.155L461.254 101ZM449.254 114.25L448.37 113.782L448.365 113.792L448.359 113.803L449.254 114.25ZM449.254 153.25L448.359 153.697L448.365 153.708L448.37 153.718L449.254 153.25ZM461.254 166.5L460.719 167.345L460.725 167.349L460.731 167.353L461.254 166.5ZM498.254 165.25L498.842 166.059L498.254 165.25ZM510.004 149L510.405 148.084L509.409 147.647L509.058 148.677L510.004 149ZM542.504 163.25L543.458 163.548L543.725 162.694L542.905 162.334L542.504 163.25ZM529.504 184.75L528.787 184.052L529.504 184.75ZM507.254 199.75L507.628 200.677L507.636 200.674L507.644 200.671L507.254 199.75ZM478.754 204C465.244 204 453.081 200.954 442.243 194.878L441.265 196.622C452.427 202.88 464.931 206 478.754 206V204ZM442.259 194.887C431.571 188.639 423.026 180.176 416.611 169.486L414.896 170.514C421.482 181.491 430.27 190.195 441.249 196.613L442.259 194.887ZM416.617 169.495C410.38 158.827 407.254 146.837 407.254 133.5H405.254C405.254 147.163 408.461 159.507 414.891 170.505L416.617 169.495ZM407.254 133.5C407.254 120.163 410.38 108.259 416.614 97.7605L414.894 96.7395C408.461 107.574 405.254 119.837 405.254 133.5H407.254ZM416.617 97.7547C422.86 87.0758 431.397 78.7024 442.243 72.6223L441.265 70.8777C430.11 77.131 421.314 85.7575 414.891 96.7453L416.617 97.7547ZM442.243 72.6223C453.081 66.5463 465.244 63.5 478.754 63.5V61.5C464.931 61.5 452.427 64.6204 441.265 70.8777L442.243 72.6223ZM478.754 63.5C488.804 63.5 498.092 65.2294 506.629 68.6772L507.378 66.8228C498.583 63.2706 489.038 61.5 478.754 61.5V63.5ZM506.629 68.6772C515.175 72.1283 522.473 76.9694 528.537 83.1976L529.97 81.8024C523.701 75.3639 516.166 70.3717 507.378 66.8228L506.629 68.6772ZM528.547 83.2071C534.597 89.2572 538.93 96.4498 541.55 104.799L543.458 104.201C540.744 95.5502 536.244 88.0761 529.961 81.7929L528.547 83.2071ZM542.108 103.582L509.608 117.582L510.4 119.418L542.9 105.418L542.108 103.582ZM510.95 118.177C508.552 111.153 504.427 105.56 498.581 101.433L497.427 103.067C502.914 106.94 506.789 112.181 509.058 118.823L510.95 118.177ZM498.592 101.441C492.908 97.307 486.281 95.25 478.754 95.25V97.25C485.893 97.25 492.1 99.193 497.416 103.059L498.592 101.441ZM478.754 95.25C472.083 95.25 466.067 96.8773 460.731 100.147L461.776 101.853C466.774 98.7893 472.424 97.25 478.754 97.25V95.25ZM460.719 100.155C455.56 103.423 451.445 107.975 448.37 113.782L450.138 114.718C453.063 109.192 456.948 104.911 461.789 101.845L460.719 100.155ZM448.359 113.803C445.447 119.629 444.004 126.286 444.004 133.75H446.004C446.004 126.547 447.395 120.205 450.148 114.697L448.359 113.803ZM444.004 133.75C444.004 141.214 445.447 147.871 448.359 153.697L450.148 152.803C447.395 147.295 446.004 140.953 446.004 133.75H444.004ZM448.37 153.718C451.445 159.525 455.56 164.077 460.719 167.345L461.789 165.655C456.948 162.589 453.063 158.308 450.138 152.782L448.37 153.718ZM460.731 167.353C466.067 170.623 472.083 172.25 478.754 172.25V170.25C472.424 170.25 466.774 168.711 461.776 165.647L460.731 167.353ZM478.754 172.25C486.442 172.25 493.154 170.196 498.842 166.059L497.666 164.441C492.354 168.304 486.065 170.25 478.754 170.25V172.25ZM498.842 166.059C504.519 161.93 508.555 156.339 510.95 149.323L509.058 148.677C506.786 155.328 502.989 160.57 497.666 164.441L498.842 166.059ZM509.602 149.916L542.102 164.166L542.905 162.334L510.405 148.084L509.602 149.916ZM541.549 162.952C539.099 170.794 534.851 177.825 528.787 184.052L530.22 185.448C536.49 179.008 540.909 171.706 543.458 163.548L541.549 162.952ZM528.787 184.052C522.72 190.284 515.416 195.211 506.864 198.829L507.644 200.671C516.425 196.956 523.955 191.882 530.22 185.448L528.787 184.052ZM506.879 198.823C498.344 202.27 488.972 204 478.754 204V206C489.202 206 498.831 204.23 507.628 200.677L506.879 198.823ZM592.586 195.5L592.066 196.354L592.075 196.36L592.586 195.5ZM567.836 169.5L568.716 169.026L567.836 169.5ZM568.086 97L567.22 96.4995L567.214 96.5097L568.086 97ZM592.836 71.75L593.348 72.6087L592.836 71.75ZM656.586 67.75L656.199 68.672L656.207 68.6753L656.215 68.6785L656.586 67.75ZM677.586 82L676.85 82.6766L676.854 82.6819L676.859 82.6872L677.586 82ZM690.836 103.5L689.897 103.845L689.9 103.851L690.836 103.5ZM694.836 137.75L693.844 137.626L693.84 137.655L693.838 137.683L694.836 137.75ZM693.586 144.25V145.25H694.286L694.526 144.592L693.586 144.25ZM591.336 144.25H590.336V145.25H591.336V144.25ZM591.336 116.75V115.75H590.336V116.75H591.336ZM672.336 116.75L672.927 117.557L675.394 115.75H672.336V116.75ZM654.586 129.75L653.612 129.523L653.001 132.15L655.177 130.557L654.586 129.75ZM654.336 110.75L653.384 111.058L653.387 111.066L654.336 110.75ZM644.586 97.5L643.991 98.3036L644.007 98.3159L644.024 98.3275L644.586 97.5ZM611.086 97.25L610.524 96.4225L611.086 97.25ZM600.586 111.25L601.521 111.604L600.586 111.25ZM597.836 133.75L598.832 133.837L598.838 133.765L598.834 133.693L597.836 133.75ZM600.586 154L599.667 154.394L600.586 154ZM612.086 167.75L611.544 168.59L611.554 168.597L611.563 168.603L612.086 167.75ZM647.836 168.5L647.353 167.624L647.346 167.628L647.34 167.632L647.836 168.5ZM659.086 157.5L659.515 156.597L658.678 156.199L658.218 157.004L659.086 157.5ZM689.086 171.75L690.014 172.121L690.363 171.25L689.515 170.847L689.086 171.75ZM676.336 189.25L675.685 188.491L675.68 188.495L675.674 188.5L676.336 189.25ZM656.086 201L656.408 201.947L656.417 201.944L656.426 201.94L656.086 201ZM630.336 204C615.985 204 603.584 200.867 593.096 194.64L592.075 196.36C602.921 202.799 615.687 206 630.336 206V204ZM593.106 194.646C582.589 188.237 574.464 179.7 568.716 169.026L566.955 169.974C572.874 180.966 581.25 189.763 592.066 196.354L593.106 194.646ZM568.716 169.026C562.967 158.348 560.086 146.513 560.086 133.5H558.086C558.086 146.82 561.038 158.985 566.955 169.974L568.716 169.026ZM560.086 133.5C560.086 119.985 563.051 107.99 568.958 97.4903L567.214 96.5097C561.121 107.343 558.086 119.682 558.086 133.5H560.086ZM568.952 97.5005C575.035 86.9777 583.165 78.6859 593.348 72.6087L592.323 70.8913C581.84 77.1474 573.47 85.6889 567.22 96.4995L568.952 97.5005ZM593.348 72.6087C603.514 66.5419 615.001 63.5 627.836 63.5V61.5C614.671 61.5 602.824 64.6247 592.323 70.8913L593.348 72.6087ZM627.836 63.5C638.562 63.5 648.01 65.2326 656.199 68.672L656.973 66.828C648.495 63.2674 638.776 61.5 627.836 61.5V63.5ZM656.215 68.6785C664.419 71.9603 671.291 76.6279 676.85 82.6766L678.322 81.3234C672.547 75.0387 665.419 70.2064 656.957 66.8215L656.215 68.6785ZM676.859 82.6872C682.597 88.7528 686.943 95.8022 689.897 103.845L691.775 103.155C688.729 94.8644 684.241 87.5805 678.312 81.3128L676.859 82.6872ZM689.9 103.851C692.853 111.727 694.336 120.357 694.336 129.75H696.336C696.336 120.143 694.819 111.273 691.772 103.149L689.9 103.851ZM694.336 129.75C694.336 132.375 694.172 135 693.844 137.626L695.828 137.874C696.167 135.167 696.336 132.458 696.336 129.75H694.336ZM693.838 137.683C693.676 140.115 693.273 142.184 692.646 143.908L694.526 144.592C695.232 142.649 695.662 140.385 695.834 137.817L693.838 137.683ZM693.586 143.25H591.336V145.25H693.586V143.25ZM592.336 144.25V116.75H590.336V144.25H592.336ZM591.336 117.75H672.336V115.75H591.336V117.75ZM671.745 115.943L653.995 128.943L655.177 130.557L672.927 117.557L671.745 115.943ZM655.56 129.977C657.257 122.678 657.19 116.15 655.285 110.434L653.387 111.066C655.148 116.35 655.248 122.489 653.612 129.523L655.56 129.977ZM655.287 110.442C653.39 104.576 650.009 99.9715 645.147 96.6725L644.024 98.3275C648.496 101.362 651.616 105.59 653.385 111.058L655.287 110.442ZM645.181 96.6964C640.478 93.2126 634.675 91.5 627.836 91.5V93.5C634.33 93.5 639.694 95.1207 643.991 98.3036L645.181 96.6964ZM627.836 91.5C621.167 91.5 615.381 93.127 610.524 96.4225L611.647 98.0775C616.124 95.0397 621.505 93.5 627.836 93.5V91.5ZM610.524 96.4225C605.66 99.7234 602.044 104.57 599.651 110.896L601.521 111.604C603.794 105.596 607.179 101.11 611.647 98.0775L610.524 96.4225ZM599.651 110.896C597.254 117.23 596.332 124.879 596.838 133.807L598.834 133.693C598.34 124.955 599.251 117.603 601.521 111.604L599.651 110.896ZM596.84 133.663C596.162 141.46 597.089 148.38 599.667 154.394L601.505 153.606C599.082 147.953 598.177 141.374 598.832 133.837L596.84 133.663ZM599.667 154.394C602.243 160.404 606.204 165.145 611.544 168.59L612.628 166.91C607.634 163.688 603.929 159.263 601.505 153.606L599.667 154.394ZM611.563 168.603C616.917 171.884 623.357 173.5 630.836 173.5V171.5C623.648 171.5 617.588 169.949 612.609 166.897L611.563 168.603ZM630.836 173.5C637.635 173.5 643.482 172.14 648.332 169.368L647.34 167.632C642.857 170.194 637.37 171.5 630.836 171.5V173.5ZM648.319 169.376C653.309 166.623 657.194 162.827 659.954 157.996L658.218 157.004C655.645 161.507 652.03 165.044 647.353 167.624L648.319 169.376ZM658.657 158.403L688.657 172.653L689.515 170.847L659.515 156.597L658.657 158.403ZM688.157 171.379C685.555 177.885 681.405 183.588 675.685 188.491L676.987 190.009C682.934 184.912 687.284 178.948 690.014 172.121L688.157 171.379ZM675.674 188.5C670.111 193.409 663.473 197.265 655.746 200.06L656.426 201.94C664.365 199.069 671.227 195.091 676.998 190L675.674 188.5ZM655.764 200.053C648.046 202.68 639.573 204 630.336 204V206C639.765 206 648.459 204.653 656.408 201.947L655.764 200.053ZM799.84 198.75L799.448 199.67L799.457 199.674L799.466 199.677L799.84 198.75ZM773.34 180.5L772.61 181.183L772.618 181.192L773.34 180.5ZM756.84 152.75L756.43 151.838L755.597 152.212L755.894 153.075L756.84 152.75ZM788.59 138.5L789.499 138.083L789.085 137.182L788.18 137.588L788.59 138.5ZM807.84 162.5L807.259 163.314L807.266 163.319L807.84 162.5ZM849.09 168.75L849.489 169.667L849.09 168.75ZM858.09 162L858.884 162.607L858.893 162.597L858.901 162.585L858.09 162ZM857.34 140.5L856.575 141.144L856.584 141.154L856.592 141.164L857.34 140.5ZM844.84 133L844.528 133.95L844.532 133.951L844.84 133ZM808.34 121L808.652 120.05L808.65 120.049L808.34 121ZM774.84 100.5L774.072 101.14L774.078 101.147L774.84 100.5ZM771.59 39.25L770.755 38.6991L770.748 38.7109L771.59 39.25ZM794.34 19.75L793.911 18.8465L793.905 18.8494L794.34 19.75ZM859.09 18.5L859.464 17.5726L859.09 18.5ZM883.59 34.75L882.874 35.4486L882.883 35.4571L883.59 34.75ZM899.34 60L899.752 60.9111L900.591 60.5318L900.282 59.6647L899.34 60ZM867.84 74.25L866.913 74.6245L867.303 75.5905L868.252 75.1611L867.84 74.25ZM852.09 54L851.509 54.8137L851.515 54.8184L851.522 54.8229L852.09 54ZM814.34 49L814.724 49.9231L814.34 49ZM805.09 56.25L805.901 56.8355L805.908 56.8252L805.915 56.8147L805.09 56.25ZM806.09 78.25L805.328 78.8976L805.336 78.9073L805.345 78.9168L806.09 78.25ZM818.84 85.75L818.532 86.7014L818.534 86.702L818.84 85.75ZM854.59 97.25L854.897 96.2982L854.896 96.298L854.59 97.25ZM888.09 117.5L887.326 118.146L887.334 118.154L888.09 117.5ZM890.84 178.25L891.667 178.812L891.672 178.805L890.84 178.25ZM867.34 198L867.769 198.903L867.775 198.9L867.34 198ZM832.84 204C821.295 204 810.423 201.939 800.214 197.823L799.466 199.677C809.924 203.894 821.051 206 832.84 206V204ZM800.232 197.83C790.187 193.549 781.467 187.542 774.062 179.808L772.618 181.192C780.213 189.124 789.159 195.285 799.448 199.67L800.232 197.83ZM774.07 179.817C766.838 172.091 761.409 162.965 757.786 152.425L755.894 153.075C759.604 163.868 765.175 173.242 772.61 181.183L774.07 179.817ZM757.249 153.662L788.999 139.412L788.18 137.588L756.43 151.838L757.249 153.662ZM787.681 138.917C792.412 149.224 798.934 157.368 807.259 163.314L808.421 161.686C800.412 155.966 794.101 148.11 789.499 138.083L787.681 138.917ZM807.266 163.319C815.765 169.268 825.131 172.25 835.34 172.25V170.25C825.549 170.25 816.582 167.399 808.413 161.681L807.266 163.319ZM835.34 172.25C840.774 172.25 845.5 171.401 849.489 169.667L848.691 167.833C845.013 169.432 840.572 170.25 835.34 170.25V172.25ZM849.489 169.667C853.451 167.944 856.598 165.598 858.884 162.607L857.295 161.393C855.249 164.069 852.395 166.222 848.691 167.833L849.489 169.667ZM858.901 162.585C861.2 159.401 862.34 155.692 862.34 151.5H860.34C860.34 155.308 859.313 158.599 857.279 161.415L858.901 162.585ZM862.34 151.5C862.34 146.943 860.93 143.034 858.087 139.836L856.592 141.164C859.083 143.966 860.34 147.39 860.34 151.5H862.34ZM858.105 139.856C855.276 136.496 850.918 133.916 845.148 132.049L844.532 133.951C850.095 135.751 854.071 138.17 856.575 141.144L858.105 139.856ZM845.152 132.05L808.652 120.05L808.028 121.95L844.528 133.95L845.152 132.05ZM808.65 120.049C793.933 115.254 782.948 108.504 775.602 99.8528L774.078 101.147C781.732 110.163 793.08 117.079 808.03 121.951L808.65 120.049ZM775.608 99.8598C768.268 91.0521 764.59 80.533 764.59 68.25H762.59C762.59 80.967 766.411 91.9479 774.072 101.14L775.608 99.8598ZM764.59 68.25C764.59 57.419 767.213 47.9438 772.432 39.789L770.748 38.7109C765.3 47.2228 762.59 57.081 762.59 68.25H764.59ZM772.424 39.8008C777.818 31.6293 785.258 25.2449 794.775 20.6505L793.905 18.8494C784.089 23.5884 776.362 30.204 770.755 38.6992L772.424 39.8008ZM794.769 20.6534C804.448 16.0599 815.547 13.75 828.09 13.75V11.75C815.299 11.75 803.899 14.1067 793.911 18.8466L794.769 20.6534ZM828.09 13.75C839.14 13.75 849.345 15.6462 858.716 19.4273L859.464 17.5726C849.835 13.6872 839.373 11.75 828.09 11.75V13.75ZM858.716 19.4273C868.093 23.2114 876.142 28.5523 882.874 35.4485L884.305 34.0515C877.371 26.9477 869.086 21.4553 859.464 17.5726L858.716 19.4273ZM882.883 35.4571C889.772 42.3465 894.945 50.634 898.398 60.3353L900.282 59.6647C896.735 49.6993 891.408 41.1535 884.297 34.0429L882.883 35.4571ZM898.928 59.0889L867.428 73.3389L868.252 75.1611L899.752 60.9111L898.928 59.0889ZM868.767 73.8755C865.201 65.0461 859.835 58.1325 852.658 53.1771L851.522 54.8229C858.345 59.5342 863.478 66.1205 866.913 74.6245L868.767 73.8755ZM852.671 53.1863C845.493 48.0593 837.288 45.5 828.09 45.5V47.5C836.892 47.5 844.686 49.9407 851.509 54.8137L852.671 53.1863ZM828.09 45.5C822.816 45.5 818.098 46.3507 813.955 48.0769L814.724 49.9231C818.582 48.316 823.03 47.5 828.09 47.5V45.5ZM813.955 48.0769C809.801 49.808 806.554 52.3391 804.265 55.6853L805.915 56.8147C807.959 53.8276 810.879 51.5253 814.724 49.9231L813.955 48.0769ZM804.279 55.6645C801.979 58.8489 800.84 62.5577 800.84 66.75H802.84C802.84 62.9423 803.867 59.6511 805.901 56.8355L804.279 55.6645ZM800.84 66.75C800.84 71.3231 802.343 75.3854 805.328 78.8976L806.852 77.6023C804.171 74.4479 802.84 70.8436 802.84 66.75H800.84ZM805.345 78.9168C808.334 82.258 812.761 84.8344 818.532 86.7014L819.148 84.7985C813.585 82.9989 809.512 80.5753 806.835 77.5832L805.345 78.9168ZM818.534 86.702L854.284 98.202L854.896 96.298L819.146 84.798L818.534 86.702ZM854.283 98.2018C869.172 102.999 880.152 109.667 887.326 118.146L888.853 116.854C881.361 108 870.008 101.167 854.897 96.2982L854.283 98.2018ZM887.334 118.154C894.662 126.622 898.34 136.967 898.34 149.25H900.34C900.34 136.533 896.518 125.711 888.846 116.846L887.334 118.154ZM898.34 149.25C898.34 159.898 895.558 169.37 890.008 177.695L891.672 178.805C897.455 170.13 900.34 160.268 900.34 149.25H898.34ZM890.013 177.688C884.455 185.861 876.763 192.335 866.905 197.1L867.775 198.9C877.916 193.999 885.892 187.305 891.667 178.812L890.013 177.688ZM866.911 197.097C857.237 201.688 845.889 204 832.84 204V206C846.124 206 857.776 203.646 867.769 198.903L866.911 197.097ZM1027.46 252H1026.46V253H1027.46V252ZM1027.46 177L1028.25 176.388L1026.46 174.075V177H1027.46ZM1033.46 184.75L1034.27 185.323L1034.7 184.72L1034.25 184.138L1033.46 184.75ZM1014.46 200L1014.84 200.923L1014.85 200.92L1014.86 200.916L1014.46 200ZM952.705 195.5L953.222 194.644L952.705 195.5ZM927.705 169.75L926.83 170.235L926.836 170.245L927.705 169.75ZM927.955 97.75L928.821 98.2505L928.824 98.2447L927.955 97.75ZM952.955 72L952.439 71.1437L952.955 72ZM1014.71 68.25L1014.26 69.1444L1014.27 69.1502L1014.28 69.1557L1014.71 68.25ZM1033.21 84L1034.12 84.3976L1034.34 83.9015L1034.04 83.45L1033.21 84ZM1029.96 91.5H1028.96L1030.87 91.8976L1029.96 91.5ZM1029.96 65.5V64.5H1028.96V65.5H1029.96ZM1064.96 65.5H1065.96V64.5H1064.96V65.5ZM1064.96 252V253H1065.96V252H1064.96ZM1010.96 166.5L1010.43 165.647L1010.96 166.5ZM1022.96 153.25L1022.07 152.782L1022.07 152.792L1022.06 152.803L1022.96 153.25ZM1022.96 114.25L1022.06 114.697L1022.07 114.708L1022.07 114.718L1022.96 114.25ZM1010.96 101L1010.43 101.853L1010.96 101ZM974.455 101.25L974.966 102.11L974.973 102.105L974.455 101.25ZM961.955 114.5L962.833 114.979L962.839 114.968L961.955 114.5ZM961.955 153.25L962.839 152.782L961.955 153.25ZM974.455 166.5L973.944 167.36L973.956 167.367L974.455 166.5ZM1028.46 252V177H1026.46V252H1028.46ZM1026.66 177.612L1032.66 185.362L1034.25 184.138L1028.25 176.388L1026.66 177.612ZM1032.64 184.177C1028.08 190.682 1021.9 195.652 1014.05 199.084L1014.86 200.916C1023.01 197.348 1029.49 192.152 1034.27 185.323L1032.64 184.177ZM1014.07 199.077C1006.2 202.356 997.667 204 988.455 204V206C997.91 206 1006.71 204.311 1014.84 200.923L1014.07 199.077ZM988.455 204C975.287 204 963.552 200.875 953.222 194.644L952.189 196.356C962.858 202.792 974.956 206 988.455 206V204ZM953.222 194.644C942.871 188.4 934.658 179.943 928.574 169.255L926.836 170.245C933.086 181.224 941.54 189.933 952.189 196.356L953.222 194.644ZM928.58 169.266C922.667 158.59 919.705 146.758 919.705 133.75H917.705C917.705 147.075 920.743 159.243 926.83 170.234L928.58 169.266ZM919.705 133.75C919.705 120.577 922.749 108.753 928.821 98.2505L927.089 97.2495C920.828 108.081 917.705 120.256 917.705 133.75H919.705ZM928.824 98.2447C934.908 87.5575 943.121 79.0997 953.472 72.8563L952.439 71.1437C941.79 77.5669 933.336 86.2758 927.086 97.2553L928.824 98.2447ZM953.472 72.8563C963.806 66.6227 975.376 63.5 988.205 63.5V61.5C975.034 61.5 963.104 64.7106 952.439 71.1437L953.472 72.8563ZM988.205 63.5C998.076 63.5 1006.75 65.3912 1014.26 69.1444L1015.15 67.3556C1007.33 63.4421 998.334 61.5 988.205 61.5V63.5ZM1014.28 69.1557C1021.96 72.7487 1027.98 77.8799 1032.37 84.55L1034.04 83.45C1029.43 76.4535 1023.12 71.0846 1015.13 67.3443L1014.28 69.1557ZM1032.29 83.6024L1029.04 91.1024L1030.87 91.8976L1034.12 84.3976L1032.29 83.6024ZM1030.96 91.5V65.5H1028.96V91.5H1030.96ZM1029.96 66.5H1064.96V64.5H1029.96V66.5ZM1063.96 65.5V252H1065.96V65.5H1063.96ZM1064.96 251H1027.46V253H1064.96V251ZM992.955 172.25C999.949 172.25 1006.13 170.628 1011.48 167.353L1010.43 165.647C1005.44 168.706 999.628 170.25 992.955 170.25V172.25ZM1011.48 167.353C1016.81 164.084 1020.94 159.523 1023.85 153.697L1022.06 152.803C1019.31 158.31 1015.43 162.583 1010.43 165.647L1011.48 167.353ZM1023.84 153.718C1026.93 147.888 1028.46 141.223 1028.46 133.75H1026.46C1026.46 140.944 1024.98 147.279 1022.07 152.782L1023.84 153.718ZM1028.46 133.75C1028.46 126.277 1026.93 119.612 1023.84 113.782L1022.07 114.718C1024.98 120.221 1026.46 126.556 1026.46 133.75H1028.46ZM1023.85 113.803C1020.94 107.977 1016.81 103.416 1011.48 100.147L1010.43 101.853C1015.43 104.917 1019.31 109.19 1022.06 114.697L1023.85 113.803ZM1011.48 100.147C1006.13 96.8725 999.949 95.25 992.955 95.25V97.25C999.628 97.25 1005.44 98.7942 1010.43 101.853L1011.48 100.147ZM992.955 95.25C985.951 95.25 979.603 96.9608 973.937 100.395L974.973 102.105C980.307 98.8726 986.293 97.25 992.955 97.25V95.25ZM973.945 100.39C968.448 103.654 964.154 108.209 961.071 114.032L962.839 114.968C965.756 109.458 969.796 105.179 974.966 102.11L973.945 100.39ZM961.077 114.021C957.984 119.691 956.455 126.278 956.455 133.75H958.455C958.455 126.555 959.926 120.309 962.833 114.979L961.077 114.021ZM956.455 133.75C956.455 141.223 957.985 147.888 961.071 153.718L962.839 152.782C959.926 147.279 958.455 140.944 958.455 133.75H956.455ZM961.071 153.718C964.154 159.541 968.448 164.096 973.945 167.36L974.966 165.64C969.796 162.571 965.756 158.292 962.839 152.782L961.071 153.718ZM973.956 167.367C979.62 170.627 985.96 172.25 992.955 172.25V170.25C986.283 170.25 980.291 168.706 974.954 165.633L973.956 167.367ZM1113.17 198L1112.63 198.846L1112.65 198.853L1112.66 198.859L1113.17 198ZM1095.67 178L1094.76 178.426L1095.67 178ZM1089.67 65.5V64.5H1088.67V65.5H1089.67ZM1127.17 65.5H1128.17V64.5H1127.17V65.5ZM1130.17 159L1129.27 159.447L1129.28 159.47L1129.3 159.492L1130.17 159ZM1139.17 168L1139.66 167.129L1139.17 168ZM1165.17 168L1164.68 167.129L1164.67 167.134L1164.66 167.139L1165.17 168ZM1173.92 159L1173.04 158.524L1173.04 158.531L1173.03 158.537L1173.92 159ZM1177.17 65.5V64.5H1176.17V65.5H1177.17ZM1214.67 65.5H1215.67V64.5H1214.67V65.5ZM1214.67 202V203H1215.67V202H1214.67ZM1179.67 202H1178.67V203H1179.67V202ZM1179.67 175L1180.62 174.684L1178.67 175H1179.67ZM1181.67 181L1182.6 181.362L1182.73 181.026L1182.62 180.684L1181.67 181ZM1166.17 199.25L1166.65 200.127L1166.66 200.123L1166.17 199.25ZM1141.42 204C1130.56 204 1121.33 201.698 1113.68 197.141L1112.66 198.859C1120.67 203.635 1130.28 206 1141.42 206V204ZM1113.7 197.154C1106.2 192.426 1100.49 185.908 1096.57 177.574L1094.76 178.426C1098.84 187.092 1104.8 193.907 1112.63 198.846L1113.7 197.154ZM1096.57 177.574C1092.65 169.232 1090.67 159.466 1090.67 148.25H1088.67C1088.67 159.701 1090.69 169.768 1094.76 178.426L1096.57 177.574ZM1090.67 148.25V65.5H1088.67V148.25H1090.67ZM1089.67 66.5H1127.17V64.5H1089.67V66.5ZM1126.17 65.5V145.25H1128.17V65.5H1126.17ZM1126.17 145.25C1126.17 150.548 1127.19 155.288 1129.27 159.447L1131.06 158.553C1129.14 154.712 1128.17 150.286 1128.17 145.25H1126.17ZM1129.3 159.492C1131.55 163.484 1134.68 166.614 1138.68 168.871L1139.66 167.129C1135.98 165.052 1133.12 162.183 1131.04 158.508L1129.3 159.492ZM1138.68 168.871C1142.67 171.13 1147.18 172.25 1152.17 172.25V170.25C1147.49 170.25 1143.33 169.203 1139.66 167.129L1138.68 168.871ZM1152.17 172.25C1157.32 172.25 1161.83 171.133 1165.68 168.861L1164.66 167.139C1161.17 169.2 1157.02 170.25 1152.17 170.25V172.25ZM1165.66 168.871C1169.66 166.611 1172.71 163.47 1174.8 159.463L1173.03 158.537C1171.12 162.196 1168.34 165.056 1164.68 167.129L1165.66 168.871ZM1174.8 159.476C1177.05 155.311 1178.17 150.56 1178.17 145.25H1176.17C1176.17 150.273 1175.12 154.689 1173.04 158.524L1174.8 159.476ZM1178.17 145.25V65.5H1176.17V145.25H1178.17ZM1177.17 66.5H1214.67V64.5H1177.17V66.5ZM1213.67 65.5V202H1215.67V65.5H1213.67ZM1214.67 201H1179.67V203H1214.67V201ZM1180.67 202V175H1178.67V202H1180.67ZM1178.72 175.316L1180.72 181.316L1182.62 180.684L1180.62 174.684L1178.72 175.316ZM1180.74 180.638C1177.65 188.604 1172.63 194.498 1165.68 198.377L1166.66 200.123C1174.04 196.002 1179.36 189.73 1182.6 181.362L1180.74 180.638ZM1165.69 198.373C1158.86 202.112 1150.78 204 1141.42 204V206C1151.05 206 1159.48 204.055 1166.65 200.127L1165.69 198.373ZM1258.83 200.25L1259.23 199.335L1258.83 200.25ZM1242.33 186.75L1241.48 187.288L1241.49 187.299L1242.33 186.75ZM1241.83 145.25L1242.68 145.765L1242.69 145.754L1241.83 145.25ZM1257.83 130.25L1257.35 129.372L1257.34 129.377L1257.83 130.25ZM1285.08 121.75L1285.23 122.738L1285.24 122.737L1285.08 121.75ZM1326.83 115H1327.83V113.825L1326.67 114.013L1326.83 115ZM1326.83 142.5L1327 143.484L1327.83 143.337V142.5H1326.83ZM1291.83 148.75L1291.65 147.766L1291.64 147.767L1291.83 148.75ZM1279.58 154L1280.21 154.772L1280.22 154.761L1280.24 154.75L1279.58 154ZM1280.08 174L1280.67 173.195L1280.08 174ZM1318.83 162.75L1317.96 162.254L1317.95 162.264L1318.83 162.75ZM1316.58 99L1315.92 99.7526L1315.93 99.7592L1315.93 99.7657L1316.58 99ZM1282.33 99.25L1281.75 98.4345L1281.74 98.439L1281.73 98.4436L1282.33 99.25ZM1271.33 113.75L1270.9 114.653L1271.87 115.115L1272.26 114.112L1271.33 113.75ZM1241.33 99.5L1240.38 99.1715L1240.09 100.018L1240.9 100.403L1241.33 99.5ZM1254.08 79.75L1253.39 79.0224L1254.08 79.75ZM1275.08 67L1274.73 66.0613L1275.08 67ZM1332.33 68.75L1332.75 67.8456L1332.33 68.75ZM1352.83 86.25L1351.99 86.7917L1351.99 86.8026L1352 86.8133L1352.83 86.25ZM1360.33 202V203H1361.33V202H1360.33ZM1325.33 202H1324.33V203H1325.33V202ZM1325.33 180L1325.15 179.015L1324.33 179.161V180H1325.33ZM1333.83 178.5L1334.66 179.055L1335.96 177.109L1333.65 177.515L1333.83 178.5ZM1320.58 193.5L1321.2 194.283L1321.21 194.277L1321.21 194.27L1320.58 193.5ZM1304.33 202L1304.03 201.044L1304.02 201.047L1304.01 201.051L1304.33 202ZM1284.33 204C1274.6 204 1266.24 202.433 1259.23 199.335L1258.42 201.165C1265.74 204.4 1274.39 206 1284.33 206V204ZM1259.23 199.335C1252.22 196.237 1246.88 191.854 1243.16 186.201L1241.49 187.299C1245.44 193.313 1251.1 197.93 1258.42 201.165L1259.23 199.335ZM1243.17 186.212C1239.45 180.395 1237.58 173.505 1237.58 165.5H1235.58C1235.58 173.829 1237.53 181.105 1241.48 187.288L1243.17 186.212ZM1237.58 165.5C1237.58 157.991 1239.29 151.423 1242.68 145.764L1240.97 144.736C1237.36 150.743 1235.58 157.676 1235.58 165.5H1237.58ZM1242.69 145.754C1246.08 139.934 1251.27 135.052 1258.31 131.123L1257.34 129.377C1250.04 133.448 1244.57 138.566 1240.96 144.746L1242.69 145.754ZM1258.31 131.128C1265.51 127.198 1274.48 124.393 1285.23 122.738L1284.92 120.762C1274.01 122.441 1264.81 125.302 1257.35 129.372L1258.31 131.128ZM1285.24 122.737L1326.99 115.987L1326.67 114.013L1284.92 120.763L1285.24 122.737ZM1325.83 115V142.5H1327.83V115H1325.83ZM1326.65 141.516L1291.65 147.766L1292 149.734L1327 143.484L1326.65 141.516ZM1291.64 147.767C1286.2 148.787 1281.93 150.59 1278.91 153.25L1280.24 154.75C1282.89 152.41 1286.78 150.713 1292.01 149.733L1291.64 147.767ZM1278.94 153.228C1275.82 155.794 1274.33 159.525 1274.33 164.25H1276.33C1276.33 159.975 1277.66 156.873 1280.21 154.772L1278.94 153.228ZM1274.33 164.25C1274.33 168.712 1276.04 172.271 1279.48 174.805L1280.67 173.195C1277.78 171.063 1276.33 168.121 1276.33 164.25H1274.33ZM1279.48 174.805C1282.85 177.287 1286.99 178.5 1291.83 178.5V176.5C1287.33 176.5 1283.63 175.379 1280.67 173.195L1279.48 174.805ZM1291.83 178.5C1298.14 178.5 1303.73 177.133 1308.57 174.368L1307.58 172.632C1303.09 175.2 1297.84 176.5 1291.83 176.5V178.5ZM1308.57 174.368C1313.39 171.615 1317.11 167.903 1319.7 163.236L1317.95 162.264C1315.54 166.597 1312.1 170.052 1307.58 172.632L1308.57 174.368ZM1319.69 163.246C1322.45 158.425 1323.83 153.17 1323.83 147.5H1321.83C1321.83 152.83 1320.54 157.742 1317.96 162.254L1319.69 163.246ZM1323.83 147.5V112H1321.83V147.5H1323.83ZM1323.83 112C1323.83 106.52 1321.6 101.913 1317.22 98.2343L1315.93 99.7657C1319.89 103.087 1321.83 107.146 1321.83 112H1323.83ZM1317.23 98.2474C1313 94.5431 1307.24 92.75 1300.08 92.75V94.75C1306.91 94.75 1312.15 96.4569 1315.92 99.7526L1317.23 98.2474ZM1300.08 92.75C1293.21 92.75 1287.09 94.6413 1281.75 98.4345L1282.9 100.066C1287.89 96.5253 1293.61 94.75 1300.08 94.75V92.75ZM1281.73 98.4436C1276.58 102.227 1272.79 107.217 1270.39 113.388L1272.26 114.112C1274.53 108.283 1278.08 103.606 1282.92 100.056L1281.73 98.4436ZM1271.76 112.847L1241.76 98.5967L1240.9 100.403L1270.9 114.653L1271.76 112.847ZM1242.27 99.8285C1244.89 92.3117 1249.05 85.8659 1254.76 80.4776L1253.39 79.0224C1247.44 84.6341 1243.1 91.3549 1240.38 99.1715L1242.27 99.8285ZM1254.76 80.4776C1260.49 75.0779 1267.37 70.8961 1275.42 67.9387L1274.73 66.0613C1266.45 69.1039 1259.33 73.4221 1253.39 79.0224L1254.76 80.4776ZM1275.42 67.9387C1283.47 64.9835 1292.26 63.5 1301.83 63.5V61.5C1292.05 61.5 1283.02 63.0165 1274.73 66.0613L1275.42 67.9387ZM1301.83 63.5C1313.2 63.5 1323.22 65.5609 1331.9 69.6544L1332.75 67.8456C1323.76 63.6058 1313.45 61.5 1301.83 61.5V63.5ZM1331.9 69.6544C1340.58 73.7491 1347.26 79.4637 1351.99 86.7917L1353.67 85.7083C1348.72 78.0363 1341.74 72.0842 1332.75 67.8456L1331.9 69.6544ZM1352 86.8133C1356.87 93.9629 1359.33 102.345 1359.33 112H1361.33C1361.33 101.988 1358.78 93.2038 1353.65 85.6867L1352 86.8133ZM1359.33 112V202H1361.33V112H1359.33ZM1360.33 201H1325.33V203H1360.33V201ZM1326.33 202V180H1324.33V202H1326.33ZM1325.5 180.985L1334 179.485L1333.65 177.515L1325.15 179.015L1325.5 180.985ZM1332.99 177.945C1329.04 183.876 1324.69 188.8 1319.94 192.73L1321.21 194.27C1326.13 190.2 1330.61 185.124 1334.66 179.055L1332.99 177.945ZM1319.95 192.717C1315.22 196.471 1309.92 199.246 1304.03 201.044L1304.62 202.956C1310.74 201.087 1316.26 198.196 1321.2 194.283L1319.95 192.717ZM1304.01 201.051C1298.13 203.012 1291.57 204 1284.33 204V206C1291.75 206 1298.53 204.988 1304.64 202.949L1304.01 201.051ZM1387.83 202H1386.83V203H1387.83V202ZM1387.83 65.5V64.5H1386.83V65.5H1387.83ZM1422.83 65.5H1423.83V64.5H1422.83V65.5ZM1422.83 98.25L1421.94 98.7157L1423.83 98.25H1422.83ZM1420.33 93.5L1419.36 93.2476L1419.26 93.6227L1419.44 93.9657L1420.33 93.5ZM1435.08 70.25L1435.58 71.113L1435.59 71.1093L1435.08 70.25ZM1467.83 64H1468.83V63H1467.83V64ZM1467.83 96.5V97.5H1468.83V96.5H1467.83ZM1433.83 105L1434.52 105.718L1434.53 105.712L1434.54 105.707L1433.83 105ZM1425.33 202V203H1426.33V202H1425.33ZM1388.83 202V65.5H1386.83V202H1388.83ZM1387.83 66.5H1422.83V64.5H1387.83V66.5ZM1421.83 65.5V98.25H1423.83V65.5H1421.83ZM1423.71 97.7842L1421.21 93.0342L1419.44 93.9657L1421.94 98.7157L1423.71 97.7842ZM1421.3 93.7524C1424.26 82.3821 1429.07 74.9246 1435.58 71.113L1434.57 69.387C1427.42 73.5754 1422.39 81.6179 1419.36 93.2476L1421.3 93.7524ZM1435.59 71.1093C1442.41 67.0491 1450.48 65 1459.83 65V63C1450.18 63 1441.75 65.1176 1434.57 69.3907L1435.59 71.1093ZM1459.83 65H1467.83V63H1459.83V65ZM1466.83 64V96.5H1468.83V64H1466.83ZM1467.83 95.5H1456.08V97.5H1467.83V95.5ZM1456.08 95.5C1446.69 95.5 1439 98.4113 1433.12 104.293L1434.54 105.707C1439.99 100.255 1447.14 97.5 1456.08 97.5V95.5ZM1433.13 104.282C1427.22 110.021 1424.33 118.145 1424.33 128.5H1426.33C1426.33 118.522 1429.1 110.979 1434.52 105.718L1433.13 104.282ZM1424.33 128.5V202H1426.33V128.5H1424.33ZM1425.33 201H1387.83V203H1425.33V201ZM1512.26 195.5L1511.74 196.354L1511.75 196.36L1512.26 195.5ZM1487.51 169.5L1488.39 169.026L1487.51 169.5ZM1487.76 97L1486.9 96.4995L1486.89 96.5097L1487.76 97ZM1512.51 71.75L1513.03 72.6087L1512.51 71.75ZM1576.26 67.75L1575.88 68.672L1575.88 68.6753L1575.89 68.6785L1576.26 67.75ZM1597.26 82L1596.53 82.6766L1596.53 82.6819L1596.54 82.6872L1597.26 82ZM1610.51 103.5L1609.57 103.845L1609.58 103.851L1610.51 103.5ZM1614.51 137.75L1613.52 137.626L1613.52 137.655L1613.52 137.683L1614.51 137.75ZM1613.26 144.25V145.25H1613.96L1614.2 144.592L1613.26 144.25ZM1511.01 144.25H1510.01V145.25H1511.01V144.25ZM1511.01 116.75V115.75H1510.01V116.75H1511.01ZM1592.01 116.75L1592.6 117.557L1595.07 115.75H1592.01V116.75ZM1574.26 129.75L1573.29 129.523L1572.68 132.15L1574.85 130.557L1574.26 129.75ZM1574.01 110.75L1573.06 111.058L1573.06 111.066L1574.01 110.75ZM1564.26 97.5L1563.67 98.3036L1563.69 98.3159L1563.7 98.3275L1564.26 97.5ZM1530.76 97.25L1530.2 96.4225L1530.76 97.25ZM1520.26 111.25L1521.2 111.604L1520.26 111.25ZM1517.51 133.75L1518.51 133.837L1518.52 133.765L1518.51 133.693L1517.51 133.75ZM1520.26 154L1519.34 154.394L1520.26 154ZM1531.76 167.75L1531.22 168.59L1531.23 168.597L1531.24 168.603L1531.76 167.75ZM1567.51 168.5L1567.03 167.624L1567.02 167.628L1567.02 167.632L1567.51 168.5ZM1578.76 157.5L1579.19 156.597L1578.36 156.199L1577.9 157.004L1578.76 157.5ZM1608.76 171.75L1609.69 172.121L1610.04 171.25L1609.19 170.847L1608.76 171.75ZM1596.01 189.25L1595.36 188.491L1595.36 188.495L1595.35 188.5L1596.01 189.25ZM1575.76 201L1576.09 201.947L1576.09 201.944L1576.1 201.94L1575.76 201ZM1550.01 204C1535.66 204 1523.26 200.867 1512.77 194.64L1511.75 196.36C1522.6 202.799 1535.36 206 1550.01 206V204ZM1512.78 194.646C1502.27 188.237 1494.14 179.7 1488.39 169.026L1486.63 169.974C1492.55 180.966 1500.93 189.763 1511.74 196.354L1512.78 194.646ZM1488.39 169.026C1482.64 158.348 1479.76 146.513 1479.76 133.5H1477.76C1477.76 146.82 1480.72 158.985 1486.63 169.974L1488.39 169.026ZM1479.76 133.5C1479.76 119.985 1482.73 107.99 1488.64 97.4903L1486.89 96.5097C1480.8 107.343 1477.76 119.682 1477.76 133.5H1479.76ZM1488.63 97.5005C1494.71 86.9777 1502.84 78.6859 1513.03 72.6087L1512 70.8913C1501.52 77.1474 1493.15 85.6889 1486.9 96.4995L1488.63 97.5005ZM1513.03 72.6087C1523.19 66.5419 1534.68 63.5 1547.51 63.5V61.5C1534.35 61.5 1522.5 64.6247 1512 70.8913L1513.03 72.6087ZM1547.51 63.5C1558.24 63.5 1567.69 65.2326 1575.88 68.672L1576.65 66.828C1568.17 63.2674 1558.45 61.5 1547.51 61.5V63.5ZM1575.89 68.6785C1584.1 71.9603 1590.97 76.6279 1596.53 82.6766L1598 81.3234C1592.22 75.0387 1585.1 70.2064 1576.64 66.8215L1575.89 68.6785ZM1596.54 82.6872C1602.28 88.7528 1606.62 95.8022 1609.57 103.845L1611.45 103.155C1608.41 94.8644 1603.92 87.5805 1597.99 81.3128L1596.54 82.6872ZM1609.58 103.851C1612.53 111.727 1614.01 120.357 1614.01 129.75H1616.01C1616.01 120.143 1614.5 111.273 1611.45 103.149L1609.58 103.851ZM1614.01 129.75C1614.01 132.375 1613.85 135 1613.52 137.626L1615.51 137.874C1615.84 135.167 1616.01 132.458 1616.01 129.75H1614.01ZM1613.52 137.683C1613.35 140.115 1612.95 142.184 1612.32 143.908L1614.2 144.592C1614.91 142.649 1615.34 140.385 1615.51 137.817L1613.52 137.683ZM1613.26 143.25H1511.01V145.25H1613.26V143.25ZM1512.01 144.25V116.75H1510.01V144.25H1512.01ZM1511.01 117.75H1592.01V115.75H1511.01V117.75ZM1591.42 115.943L1573.67 128.943L1574.85 130.557L1592.6 117.557L1591.42 115.943ZM1575.24 129.977C1576.94 122.678 1576.87 116.15 1574.96 110.434L1573.06 111.066C1574.83 116.35 1574.93 122.489 1573.29 129.523L1575.24 129.977ZM1574.97 110.442C1573.07 104.576 1569.69 99.9715 1564.83 96.6725L1563.7 98.3275C1568.17 101.362 1571.29 105.59 1573.06 111.058L1574.97 110.442ZM1564.86 96.6964C1560.16 93.2126 1554.35 91.5 1547.51 91.5V93.5C1554.01 93.5 1559.37 95.1207 1563.67 98.3036L1564.86 96.6964ZM1547.51 91.5C1540.84 91.5 1535.06 93.127 1530.2 96.4225L1531.33 98.0775C1535.8 95.0397 1541.18 93.5 1547.51 93.5V91.5ZM1530.2 96.4225C1525.34 99.7234 1521.72 104.57 1519.33 110.896L1521.2 111.604C1523.47 105.596 1526.86 101.11 1531.33 98.0775L1530.2 96.4225ZM1519.33 110.896C1516.93 117.23 1516.01 124.879 1516.52 133.807L1518.51 133.693C1518.02 124.955 1518.93 117.603 1521.2 111.604L1519.33 110.896ZM1516.52 133.663C1515.84 141.46 1516.77 148.38 1519.34 154.394L1521.18 153.606C1518.76 147.953 1517.85 141.374 1518.51 133.837L1516.52 133.663ZM1519.34 154.394C1521.92 160.404 1525.88 165.145 1531.22 168.59L1532.31 166.91C1527.31 163.688 1523.61 159.263 1521.18 153.606L1519.34 154.394ZM1531.24 168.603C1536.6 171.884 1543.03 173.5 1550.51 173.5V171.5C1543.33 171.5 1537.27 169.949 1532.29 166.897L1531.24 168.603ZM1550.51 173.5C1557.31 173.5 1563.16 172.14 1568.01 169.368L1567.02 167.632C1562.53 170.194 1557.05 171.5 1550.51 171.5V173.5ZM1568 169.376C1572.99 166.623 1576.87 162.827 1579.63 157.996L1577.9 157.004C1575.32 161.507 1571.71 165.044 1567.03 167.624L1568 169.376ZM1578.33 158.403L1608.33 172.653L1609.19 170.847L1579.19 156.597L1578.33 158.403ZM1607.84 171.379C1605.23 177.885 1601.08 183.588 1595.36 188.491L1596.66 190.009C1602.61 184.912 1606.96 178.948 1609.69 172.121L1607.84 171.379ZM1595.35 188.5C1589.79 193.409 1583.15 197.265 1575.42 200.06L1576.1 201.94C1584.04 199.069 1590.91 195.091 1596.68 190L1595.35 188.5ZM1575.44 200.053C1567.72 202.68 1559.25 204 1550.01 204V206C1559.44 206 1568.14 204.653 1576.09 201.947L1575.44 200.053Z" fill="black"/>
</svg>
