<svg width="36" height="36" viewBox="0 0 36 36" fill="none" xmlns="http://www.w3.org/2000/svg">
<path d="M13.4922 19.5H17.9922H22.4922" stroke="black" stroke-width="2" stroke-linecap="round" stroke-linejoin="round"/>
<path d="M4.56238 6.44085C4.52533 6.16299 4.62224 5.88507 4.85059 5.72249C5.89439 4.9793 9.47489 3 18.0036 3C26.5323 3 30.1128 4.97928 31.1566 5.72249C31.3849 5.88507 31.4818 6.16299 31.4448 6.44085L28.896 25.5567C28.6488 27.4116 27.5502 29.0448 25.9255 29.9731L25.4457 30.2473C20.8342 32.8825 15.1729 32.8825 10.5615 30.2473L10.0817 29.9731C8.45699 29.0448 7.35847 27.4116 7.11116 25.5567L4.56238 6.44085Z" stroke="black" stroke-width="2"/>
<path d="M4.5 7.5C8.35714 11.5 27.6429 11.4999 31.5 7.5" stroke="black" stroke-width="2"/>
</svg>
