<svg width="36" height="35" viewBox="0 0 36 35" fill="none" xmlns="http://www.w3.org/2000/svg">
<path d="M34.7969 17.491C34.7969 26.8746 27.186 34.482 17.7969 34.482C8.40779 34.482 0.796875 26.8746 0.796875 17.491C0.796875 8.10737 8.40779 0.5 17.7969 0.5C27.186 0.5 34.7969 8.10737 34.7969 17.491Z" stroke="black"/>
<path d="M19.3765 18.6254H21.4139L22.2289 15.3673H19.3765V13.7382C19.3765 12.8993 19.3765 12.1092 21.0064 12.1092H22.2289V9.37234C21.9632 9.33731 20.96 9.2583 19.9005 9.2583C17.688 9.2583 16.1167 10.608 16.1167 13.0866V15.3673H13.6719V18.6254H16.1167V25.5489H19.3765V18.6254Z" fill="black"/>
</svg>
