<svg width="36" height="36" viewBox="0 0 36 36" fill="none" xmlns="http://www.w3.org/2000/svg">
<path d="M30 16.5C30 9.87258 24.6275 4.5 18 4.5C11.3726 4.5 6 9.87258 6 16.5" stroke="black" stroke-width="2" stroke-linecap="round" stroke-linejoin="round"/>
<path d="M3 23.1573V20.3421C3 18.9654 3.93689 17.7655 5.2724 17.4316L7.88172 16.7793C8.44975 16.6372 9 17.0668 9 17.6524V25.8469C9 26.4325 8.44975 26.8621 7.88172 26.7201L5.2724 26.0677C3.93689 25.7338 3 24.534 3 23.1573Z" stroke="black" stroke-width="2"/>
<path d="M33 23.1573V20.3421C33 18.9654 32.0631 17.7655 30.7276 17.4316L28.1183 16.7793C27.5502 16.6372 27 17.0668 27 17.6524V25.8469C27 26.4325 27.5502 26.8621 28.1183 26.7201L30.7276 26.0677C32.0631 25.7338 33 24.534 33 23.1573Z" stroke="black" stroke-width="2"/>
<path d="M30 27V27.75C30 29.4069 28.6569 30.75 27 30.75H21.75" stroke="black" stroke-width="2"/>
<path d="M20.25 33H15.75C14.5074 33 13.5 31.9926 13.5 30.75C13.5 29.5074 14.5074 28.5 15.75 28.5H20.25C21.4926 28.5 22.5 29.5074 22.5 30.75C22.5 31.9926 21.4926 33 20.25 33Z" stroke="black" stroke-width="2"/>
</svg>
