<svg width="35" height="35" viewBox="0 0 35 35" fill="none" xmlns="http://www.w3.org/2000/svg">
<path d="M34.5 17.491C34.5 26.8746 26.8891 34.482 17.5 34.482C8.11092 34.482 0.5 26.8746 0.5 17.491C0.5 8.10737 8.11092 0.5 17.5 0.5C26.8891 0.5 34.5 8.10737 34.5 17.491Z" stroke="black"/>
<path d="M17.4151 9.2583C19.6294 9.2583 19.9056 9.26645 20.7744 9.30717C21.6423 9.3479 22.2331 9.48393 22.7531 9.68593C23.2909 9.89282 23.744 10.173 24.1972 10.6251C24.6116 11.0323 24.9322 11.5248 25.1368 12.0684C25.3381 12.5873 25.475 13.1786 25.5157 14.0461C25.554 14.9144 25.5646 15.1905 25.5646 17.4036C25.5646 19.6167 25.5565 19.8928 25.5157 20.7611C25.475 21.6286 25.3381 22.2191 25.1368 22.7388C24.9328 23.2827 24.6121 23.7754 24.1972 24.1822C23.7896 24.5962 23.2969 24.9167 22.7531 25.1213C22.2339 25.3225 21.6423 25.4593 20.7744 25.5001C19.9056 25.5384 19.6294 25.5489 17.4151 25.5489C15.2009 25.5489 14.9246 25.5408 14.0559 25.5001C13.188 25.4593 12.5971 25.3225 12.0772 25.1213C11.5331 24.9172 11.0402 24.5967 10.6331 24.1822C10.2186 23.775 9.89797 23.2825 9.69347 22.7388C9.49137 22.2199 9.35527 21.6286 9.31452 20.7611C9.27622 19.8928 9.26562 19.6167 9.26562 17.4036C9.26562 15.1905 9.27377 14.9144 9.31452 14.0461C9.35527 13.1778 9.49137 12.5881 9.69347 12.0684C9.8974 11.5245 10.2181 11.0318 10.6331 10.6251C11.0403 10.2107 11.5332 9.89016 12.0772 9.68593C12.5971 9.48393 13.1872 9.3479 14.0559 9.30717C14.9246 9.26889 15.2009 9.2583 17.4151 9.2583ZM17.4151 13.331C16.3344 13.331 15.298 13.76 14.5338 14.5238C13.7697 15.2876 13.3404 16.3235 13.3404 17.4036C13.3404 18.4838 13.7697 19.5197 14.5338 20.2834C15.298 21.0472 16.3344 21.4763 17.4151 21.4763C18.4958 21.4763 19.5323 21.0472 20.2964 20.2834C21.0606 19.5197 21.4899 18.4838 21.4899 17.4036C21.4899 16.3235 21.0606 15.2876 20.2964 14.5238C19.5323 13.76 18.4958 13.331 17.4151 13.331ZM22.7123 13.1273C22.7123 12.8573 22.605 12.5983 22.4139 12.4074C22.2229 12.2164 21.9638 12.1092 21.6936 12.1092C21.4235 12.1092 21.1643 12.2164 20.9733 12.4074C20.7823 12.5983 20.6749 12.8573 20.6749 13.1273C20.6749 13.3974 20.7823 13.6563 20.9733 13.8473C21.1643 14.0382 21.4235 14.1455 21.6936 14.1455C21.9638 14.1455 22.2229 14.0382 22.4139 13.8473C22.605 13.6563 22.7123 13.3974 22.7123 13.1273ZM17.4151 14.96C18.0635 14.96 18.6854 15.2175 19.1439 15.6757C19.6024 16.134 19.86 16.7555 19.86 17.4036C19.86 18.0517 19.6024 18.6732 19.1439 19.1315C18.6854 19.5898 18.0635 19.8472 17.4151 19.8472C16.7667 19.8472 16.1449 19.5898 15.6864 19.1315C15.2279 18.6732 14.9703 18.0517 14.9703 17.4036C14.9703 16.7555 15.2279 16.134 15.6864 15.6757C16.1449 15.2175 16.7667 14.96 17.4151 14.96Z" fill="black"/>
</svg>
