<svg width="36" height="35" viewBox="0 0 36 35" fill="none" xmlns="http://www.w3.org/2000/svg">
<path d="M35.0859 17.491C35.0859 26.8746 27.475 34.482 18.0859 34.482C8.69685 34.482 1.08594 26.8746 1.08594 17.491C1.08594 8.10737 8.69685 0.5 18.0859 0.5C27.475 0.5 35.0859 8.10737 35.0859 17.491Z" stroke="black"/>
<path d="M26.4627 11.8938C25.8405 12.1689 25.1808 12.3495 24.5052 12.4298C25.2173 12.0041 25.7502 11.3342 26.0047 10.5449C25.3364 10.9424 24.6038 11.221 23.8402 11.3717C23.3273 10.8232 22.6474 10.4594 21.9063 10.3369C21.1652 10.2144 20.4043 10.3401 19.742 10.6944C19.0797 11.0487 18.5531 11.6117 18.244 12.296C17.9349 12.9803 17.8607 13.7475 18.0329 14.4783C16.6777 14.4104 15.3519 14.0584 14.1417 13.4452C12.9315 12.832 11.8638 11.9712 11.008 10.9188C10.7051 11.4389 10.5459 12.03 10.5467 12.6318C10.5467 13.8128 11.1481 14.8563 12.0625 15.4672C11.5214 15.4501 10.9922 15.3041 10.519 15.0412V15.0835C10.5192 15.8701 10.7915 16.6324 11.2898 17.2413C11.7882 17.8501 12.4818 18.2679 13.2532 18.4239C12.7508 18.56 12.2241 18.58 11.7129 18.4826C11.9304 19.1596 12.3543 19.7518 12.9252 20.1761C13.4962 20.6004 14.1856 20.8356 14.8969 20.8488C14.1899 21.4037 13.3804 21.814 12.5147 22.0561C11.649 22.2981 10.744 22.3673 9.85156 22.2595C11.4095 23.261 13.2231 23.7926 15.0754 23.7909C21.3448 23.7909 24.7733 18.5999 24.7733 14.0979C24.7733 13.9513 24.7692 13.8031 24.7627 13.6581C25.4301 13.176 26.006 12.5788 26.4635 11.8946L26.4627 11.8938Z" fill="black"/>
</svg>
