<svg width="36" height="35" viewBox="0 0 36 35" fill="none" xmlns="http://www.w3.org/2000/svg">
<path d="M35.3828 17.491C35.3828 26.8746 27.7719 34.482 18.3828 34.482C8.99373 34.482 1.38281 26.8746 1.38281 17.491C1.38281 8.10737 8.99373 0.5 18.3828 0.5C27.7719 0.5 35.3828 8.10737 35.3828 17.491Z" stroke="black"/>
<path d="M26.075 13.3514C26.4475 14.8028 26.4475 17.8329 26.4475 17.8329C26.4475 17.8329 26.4475 20.863 26.075 22.3145C25.868 23.1168 25.2625 23.748 24.4956 23.9614C23.1029 24.3492 18.2979 24.3492 18.2979 24.3492C18.2979 24.3492 13.4954 24.3492 12.1002 23.9614C11.3301 23.7448 10.7254 23.1143 10.5209 22.3145C10.1484 20.863 10.1484 17.8329 10.1484 17.8329C10.1484 17.8329 10.1484 14.8028 10.5209 13.3514C10.7279 12.549 11.3334 11.9178 12.1002 11.7044C13.4954 11.3167 18.2979 11.3167 18.2979 11.3167C18.2979 11.3167 23.1029 11.3167 24.4956 11.7044C25.2658 11.921 25.8705 12.5515 26.075 13.3514V13.3514ZM16.668 20.6838L21.5578 17.8329L16.668 14.982V20.6838Z" fill="black"/>
</svg>
