<svg width="129" height="33" viewBox="0 0 129 33" fill="none" xmlns="http://www.w3.org/2000/svg">
<g clip-path="url(#clip0_405_145)">
<path d="M54.726 10.5096C54.726 13.4927 53.6556 16.0371 51.5146 18.1393C49.3736 20.2415 46.7815 21.2909 43.7418 21.2909C40.7022 21.2909 38.017 20.2766 35.8008 18.2481C33.5847 16.2196 32.4784 13.7314 32.4784 10.7799C32.4784 7.82836 33.5489 5.25238 35.6899 3.15017C37.8308 1.04797 40.4229 -0.00488281 43.4626 -0.00488281C46.5022 -0.00488281 49.1874 1.00937 51.4036 3.03787C53.6198 5.06637 54.726 7.55462 54.726 10.5061V10.5096ZM52.1662 10.4535C52.1662 8.14071 51.3141 6.1824 49.6063 4.58206C47.8985 2.98172 45.8506 2.17804 43.459 2.17804C41.0674 2.17804 39.109 3.01681 37.48 4.69085C35.8474 6.36489 35.0311 8.37936 35.0311 10.7272C35.0311 13.0751 35.8796 14.9913 37.5766 16.5846C39.2737 18.1779 41.3252 18.9746 43.7383 18.9746C46.1513 18.9746 48.0883 18.1358 49.7173 16.4618C51.3499 14.7877 52.1662 12.7838 52.1662 10.4535Z" fill="black"/>
<path d="M70.3924 10.879H61.7425V20.7478H58.9893V0.571533H70.3924V2.6983H61.7425V8.80486H70.3924V10.8755V10.879Z" fill="black"/>
<path d="M85.7274 10.7694H77.0775V20.6381H74.6572V0.461914H85.7274V2.58868H77.0775V8.69524H85.7274V10.7659V10.7694Z" fill="black"/>
<path d="M92.4085 20.7478H89.9882V0.571533H92.4085V20.7478Z" fill="black"/>
<path d="M113.555 19.8498C112.592 20.2499 111.611 20.5588 110.62 20.7763C109.628 20.9939 108.622 21.1027 107.601 21.1027C106.173 21.1027 104.809 20.8746 103.513 20.4219C102.213 19.9692 101.028 19.2778 99.954 18.3513C97.7664 16.1684 96.6709 13.5994 96.6709 10.6338C96.6709 8.70711 97.1005 7.05413 97.9634 5.67138C98.8262 4.28863 99.6676 3.23227 100.495 2.49527C101.318 1.75827 102.109 1.24237 102.858 0.940551C103.609 0.642242 104.222 0.43518 104.694 0.326385C105.167 0.21759 105.65 0.136871 106.141 0.0807189C106.631 0.0245666 107.111 0 107.573 0C108.26 0 108.983 0.0596618 109.742 0.175476C110.501 0.2948 111.264 0.463256 112.023 0.680847L113.552 1.36169V4.03244C111.826 2.83218 109.936 2.23205 107.877 2.23205C106.488 2.23205 105.188 2.50931 103.982 3.06381C102.775 3.61831 101.737 4.46762 100.867 5.61172C100.366 6.33819 99.9826 7.13134 99.7141 7.98415C99.4456 8.84048 99.3095 9.71084 99.3095 10.6023C99.3095 12.1464 99.7034 13.5959 100.491 14.9505C101.279 16.3052 102.363 17.323 103.745 18.0038C105.127 18.6847 106.531 19.0251 107.959 19.0251C109.499 19.0251 110.881 18.6531 112.105 17.9056L113.552 17.0071V19.8428L113.555 19.8498Z" fill="black"/>
<path d="M129 20.7358H117.819V0.55957H129V2.74249H120.293V8.71218H129V10.7828H120.293V18.5529H129V20.7358Z" fill="black"/>
<path d="M61.1035 31.245C61.4436 31.4485 61.9413 31.6205 62.464 31.6205C63.2409 31.6205 63.6956 31.2169 63.6956 30.6378C63.6956 30.0974 63.3805 29.792 62.5857 29.4902C61.6262 29.1568 61.0319 28.669 61.0319 27.8548C61.0319 26.9564 61.7909 26.2896 62.9366 26.2896C63.5381 26.2896 63.9748 26.4264 64.2362 26.5703L64.025 27.1775C63.8316 27.0757 63.4414 26.9037 62.9079 26.9037C62.106 26.9037 61.7981 27.374 61.7981 27.7671C61.7981 28.3075 62.1561 28.5707 62.9688 28.8796C63.9641 29.2551 64.4689 29.7254 64.4689 30.5747C64.4689 31.4661 63.7958 32.2347 62.4103 32.2347C61.8446 32.2347 61.2216 32.0732 60.9102 31.8662L61.1035 31.2415V31.245Z" fill="black"/>
<path d="M74.0759 32.9987C73.2811 32.7916 72.5042 32.5635 71.8239 32.3319C71.7022 32.2898 71.5805 32.2476 71.4659 32.2476C70.0696 32.195 68.8738 31.1878 68.8738 29.3312C68.8738 27.4747 70.0267 26.292 71.6163 26.292C73.2059 26.292 74.2513 27.5063 74.2513 29.2084C74.2513 30.6894 73.5532 31.6405 72.5758 31.9739V32.009C73.1594 32.1529 73.7967 32.2898 74.2943 32.3775L74.0759 33.0022V32.9987ZM73.4458 29.2435C73.4458 28.0889 72.8336 26.8991 71.5876 26.8991C70.3417 26.8991 69.6758 28.0643 69.6829 29.3137C69.6758 30.5385 70.3632 31.6405 71.5518 31.6405C72.7405 31.6405 73.4458 30.5631 73.4458 29.2435Z" fill="black"/>
<path d="M79.7037 26.3843V29.799C79.7037 31.0905 80.2873 31.638 81.0749 31.638C81.9485 31.638 82.507 31.073 82.507 29.799V26.3843H83.2768V29.7464C83.2768 31.5187 82.3244 32.2452 81.0499 32.2452C79.8469 32.2452 78.9375 31.5678 78.9375 29.7815V26.3843H79.7073H79.7037Z" fill="black"/>
<path d="M88.9568 30.3411L88.3446 32.1555H87.5605L89.5583 26.3894H90.4749L92.4834 32.1555H91.6707L91.0405 30.3411H88.9533H88.9568ZM90.8866 29.7585L90.3102 28.0985C90.1777 27.723 90.0918 27.3791 90.0059 27.0457H89.9879C89.902 27.3896 89.8054 27.7406 89.6908 28.0915L89.1144 29.7585H90.8866Z" fill="black"/>
<path d="M97.0514 26.4599C97.4345 26.3827 97.9859 26.3406 98.5086 26.3406C99.3213 26.3406 99.844 26.4845 100.209 26.8109C100.506 27.067 100.671 27.4601 100.671 27.9058C100.671 28.6674 100.181 29.1728 99.5612 29.3763V29.4009C100.016 29.5553 100.284 29.9659 100.424 30.566C100.617 31.3697 100.757 31.9277 100.879 32.1488H100.095C99.998 31.9874 99.8691 31.489 99.7008 30.7696C99.5254 29.9729 99.2103 29.6746 98.5229 29.6501H97.8069V32.1488H97.0479V26.4599H97.0514ZM97.8105 29.0885H98.5874C99.4001 29.0885 99.9156 28.6533 99.9156 27.9936C99.9156 27.2495 99.3643 26.9232 98.5623 26.9161C98.1971 26.9161 97.9322 26.9512 97.8105 26.9863V29.092V29.0885Z" fill="black"/>
<path d="M108.505 29.4497H106.217V31.5308H108.766V32.1555H105.458V26.3894H108.637V27.0141H106.22V28.8355H108.508V29.4532L108.505 29.4497Z" fill="black"/>
<path d="M23.7657 0H1.34259H0V1.31607V26.3038V27.3146V27.6234H18.3559H19.6985V26.3038V15.3541V14.0346H18.3559H14.8222L17.1387 10.5356L16.8021 10.3215L14.6754 13.5327H9.58791V14.0346H6.89914H5.55655V15.3541V24.9737H6.89914V15.3541H18.3559V26.3038H1.34259V1.31607H23.7657V30.9469H6.89914V28.9535H5.55655V30.9469V31.9822V32.2665H23.7657H25.1119V30.9469V1.31607V0H23.7657Z" fill="#E35B5B"/>
</g>
<defs>
<clipPath id="clip0_405_145">
<rect width="129" height="33" fill="white"/>
</clipPath>
</defs>
</svg>
